<?xml version="1.0" encoding="UTF-8" standalone="yes"?>
<svg xmlns="http://www.w3.org/2000/svg" viewBox="0 0 389.9 389.6">
  <circle fill="none" cx="250.6" cy="146.4" r="35.7" transform="matrix(.160226 -.98708 .98708 .160226 6.75 311.71)"></circle>
  <path d="M191.4 130.7c-23.693 0-42.9-19.207-42.9-42.9s19.207-42.9 42.9-42.9 42.9 19.207 42.9 42.9a42.89 42.89 0 0 1-42.9 
    42.9zm0-71.5c-13.69-.038-25.498 9.605-28.197 23.026a28.68 28.68 0 0 0 17.105 32.135c12.641 5.256 27.234.846 34.848-10.531A28.68 
    28.68 0 0 0 211.6 67.6a29.06 29.06 0 0 0-20.2-8.4zm52.5 278.6a21.46 21.46 0 0 1-19.5-12.6l-33.1-80.3-32.7 80.1a21.41 21.41 0 0 
    1-37.1 4.1 21.57 21.57 0 0 1-2.1-21.5l34.4-87.5a26.63 26.63 0 0 0 1.9-10.4v-16.4a7.09 7.09 0 0 0-6.5-7.1l-60.6-5.5c-11.791
    -.911-20.611-11.209-19.7-23s11.209-20.611 23-19.7l75.1 6.7a97.18 97.18 0 0 0 7.7.3h33.4a99.08 99.08 0 0 0 7.7-.3l75-6.7h.1c11.791
    -.911 22.089 7.909 23 19.7s-7.909 22.089-19.7 23l-60.5 5.5a7.09 7.09 0 0 0-6.5 7.1v16.4a28.29 28.29 0 0 0 2 10.4l34.5 87.9a21.36
    21.36 0 0 1-1.8 20.2 22.06 22.06 0 0 1-18 9.6zm-52.5-107.1a14.11 14.11 0 0 1 13.1 8.8l33 80.1a7.62 7.62 0 0 0 3.9 3.6 7.13 7.13 
    0 0 0 9-9.6l-34.6-88.3a42.14 42.14 0 0 1-3-15.7v-16.4c-.054-11.101 8.438-20.376 19.5-21.3l60.6-5.5a7 7 0 0 0 4.9-2.4 6.61 6.61 
    0 0 0 1.7-5.2 7 7 0 0 0-7.6-6.6l-74.9 6.7a88.33 88.33 0 0 1-8.9.4h-33.4a87 87 0 0 1-8.9-.4l-75-6.7a7.12 7.12 0 0 0-1 14.2l60.7
      5.5c11.062.924 19.554 10.199 19.5 21.3v16.4a42.14 42.14 0 0 1-3 15.7l-34.5 87.9a7.09 7.09 0 0 0 .3 7.3 7.19 7.19 0 0 0 6.6 3.2 
      7 7 0 0 0 5.9-4.3l32.9-79.9a14 14 0 0 1 13.2-8.8z">
  </path>
</svg>